<svg width="36" height="35" viewBox="0 0 36 35" fill="none" xmlns="http://www.w3.org/2000/svg">
<path d="M0 0.980202H20C28.8366 0.980202 36 8.14365 36 16.9802V34.9802H10C4.47715 34.9802 0 30.503 0 24.9802V0.980202Z" fill="#4F1E47"/>
<mask id="mask0_193_93" style="mask-type:alpha" maskUnits="userSpaceOnUse" x="0" y="0" width="36" height="35">
<path d="M0 0.980202H20C28.8366 0.980202 36 8.14365 36 16.9802V34.9802H10C4.47715 34.9802 0 30.503 0 24.9802V0.980202Z" fill="#4F1E47"/>
</mask>
<g mask="url(#mask0_193_93)">
<mask id="mask1_193_93" style="mask-type:alpha" maskUnits="userSpaceOnUse" x="-2" y="-29" width="42" height="87">
<path fill-rule="evenodd" clip-rule="evenodd" d="M28.4431 -20.7461C31.2007 -20.9767 36.699 -21.2145 38.4463 -22.3408C40.1215 -23.4205 36.8308 -23.7895 36.2932 -23.8151C30.0083 -24.1145 26.6508 -24.1033 21.1101 -21.1653C11.3319 -15.9803 6.51679 -10.8058 2.44921 -0.477832C-1.0051 8.29237 -1.9108 20.6801 4.12719 28.5847C10.7444 37.2478 26.0796 32.2203 24.2427 18.7885C23.3698 12.4065 18.243 10.1981 13.7477 15.1243C9.97659 19.257 18.1224 15.7597 20.5121 16.6C25.047 18.1945 22.9806 26.373 18.5929 29.0694C14.2384 31.7454 7.96125 30.8095 5.01105 26.4691C-0.470628 18.4042 1.78342 3.9938 5.96884 -4.3104C9.9017 -12.1136 19.603 -19.9762 28.4431 -20.7461Z" fill="#FFD7BE"/>
<path fill-rule="evenodd" clip-rule="evenodd" d="M17.2942 3.60367C12.7282 4.56163 8.85917 7.64856 7.19594 11.9729C5.62429 16.0595 4.52082 21.8037 7.90041 25.3074C11.985 29.542 16.905 27.3094 18.802 22.235C21.5561 14.8677 15.9886 22.6355 14.6693 23.7109C7.1615 29.831 2.58596 10.7715 16.5497 6.7736C27.336 3.68543 33.6032 13.5078 35.1587 22.7982C36.6084 31.4574 34.4226 42.419 26.9249 47.8229C26.9021 47.8393 16.4421 54.2981 19.8387 54.22C23.5791 54.134 28.1549 49.5822 30.3413 46.8162C36.7931 38.6535 38.7903 30.5054 36.541 20.096C34.6353 11.277 27.4275 1.47778 17.2942 3.60367Z" fill="#FFD7BE"/>
<path fill-rule="evenodd" clip-rule="evenodd" d="M35.8628 26.215C35.8914 26.0729 35.8782 26.0425 35.7928 25.9255C35.7496 26.0582 35.7812 26.095 35.8628 26.215Z" fill="#FFD7BE"/>
<path fill-rule="evenodd" clip-rule="evenodd" d="M14.476 13.8402L14.7544 13.5334C14.6258 13.606 14.5183 13.6919 14.476 13.8402ZM14.4225 13.8362C14.4182 13.8418 14.4362 13.8447 14.437 13.8519C14.4372 13.8546 14.4428 13.8581 14.4428 13.8581C14.4416 13.8567 14.4768 13.7669 14.4225 13.8362Z" fill="#FFD7BE"/>
<path fill-rule="evenodd" clip-rule="evenodd" d="M5.16037 22.1081C5.29492 22.0692 5.25426 22.1171 5.27033 21.9781C5.19022 22.0045 5.15173 21.984 5.16037 22.1081Z" fill="#FFD7BE"/>
<path fill-rule="evenodd" clip-rule="evenodd" d="M12.2357 8.09868C12.3922 8.07695 12.3278 8.10811 12.3309 7.99117C12.2679 8.01988 12.2313 8.02154 12.2357 8.09868Z" fill="#FFD7BE"/>
<path fill-rule="evenodd" clip-rule="evenodd" d="M33.3833 9.03571C33.4307 9.07578 33.5213 8.9658 33.4334 9.00732C33.4324 9.00767 33.3171 8.97972 33.3833 9.03571Z" fill="#FFD7BE"/>
</mask>
<g mask="url(#mask1_193_93)">
<rect y="0.980202" width="36" height="34" fill="#FFD7BE"/>
</g>
</g>
</svg>
