<svg width="177" height="61" viewBox="0 0 177 61" fill="none" xmlns="http://www.w3.org/2000/svg">
<path d="M176.188 17.1953C176.188 17.4922 176.129 17.7734 176.012 18.0391C175.902 18.3047 175.75 18.5352 175.555 18.7305C175.359 18.9258 175.129 19.082 174.863 19.1992C174.598 19.3086 174.316 19.3633 174.02 19.3633C173.723 19.3633 173.441 19.3086 173.176 19.1992C172.918 19.082 172.691 18.9258 172.496 18.7305C172.301 18.5352 172.145 18.3047 172.027 18.0391C171.918 17.7734 171.863 17.4922 171.863 17.1953C171.863 16.8984 171.918 16.6211 172.027 16.3633C172.145 16.0977 172.301 15.8672 172.496 15.6719C172.691 15.4766 172.918 15.3242 173.176 15.2148C173.441 15.0977 173.723 15.0391 174.02 15.0391C174.316 15.0391 174.598 15.0977 174.863 15.2148C175.129 15.3242 175.359 15.4766 175.555 15.6719C175.75 15.8672 175.902 16.0977 176.012 16.3633C176.129 16.6211 176.188 16.8984 176.188 17.1953ZM176.012 34H172.039V20.4766H176.012V34Z" fill="#4F1E47"/>
<path d="M168.723 34H164.762V14.2305H166.285L168.723 18.3438V34Z" fill="#4F1E47"/>
<path d="M161.457 34H157.496V14.2305H159.02L161.457 18.3438V34Z" fill="#4F1E47"/>
<path d="M145.262 27.5781C145.746 27.6875 146.23 27.7734 146.715 27.8359C147.199 27.8984 147.688 27.9297 148.18 27.9297C148.695 27.9297 149.172 27.8828 149.609 27.7891C150.055 27.6875 150.438 27.5234 150.758 27.2969C151.086 27.0625 151.344 26.7539 151.531 26.3711C151.719 25.9883 151.812 25.5117 151.812 24.9414C151.812 24.4805 151.75 24.0586 151.625 23.6758C151.5 23.293 151.312 22.9648 151.062 22.6914C150.82 22.418 150.52 22.207 150.16 22.0586C149.801 21.9023 149.383 21.8242 148.906 21.8242C148.461 21.8242 148.059 21.9062 147.699 22.0703C147.348 22.2344 147.035 22.457 146.762 22.7383C146.496 23.0117 146.266 23.332 146.07 23.6992C145.883 24.0664 145.727 24.4492 145.602 24.8477C145.477 25.2461 145.387 25.6484 145.332 26.0547C145.277 26.4609 145.25 26.8438 145.25 27.2031C145.25 27.2656 145.25 27.3281 145.25 27.3906C145.25 27.4531 145.254 27.5156 145.262 27.5781ZM155.023 24.9062C155.023 25.4609 154.934 25.957 154.754 26.3945C154.574 26.8242 154.328 27.2031 154.016 27.5312C153.711 27.8594 153.355 28.1367 152.949 28.3633C152.543 28.5898 152.109 28.7773 151.648 28.9258C151.188 29.0664 150.711 29.168 150.219 29.2305C149.734 29.293 149.262 29.3242 148.801 29.3242C148.215 29.3242 147.637 29.2852 147.066 29.207C146.496 29.1211 145.934 28.9883 145.379 28.8086C145.465 29.3242 145.602 29.8164 145.789 30.2852C145.977 30.7461 146.227 31.1523 146.539 31.5039C146.852 31.8477 147.234 32.1211 147.688 32.3242C148.148 32.5273 148.691 32.6289 149.316 32.6289C149.73 32.6289 150.125 32.5664 150.5 32.4414C150.875 32.3164 151.219 32.1406 151.531 31.9141C151.844 31.6875 152.117 31.418 152.352 31.1055C152.594 30.793 152.789 30.4453 152.938 30.0625L154.648 30.6953C154.391 31.3125 154.035 31.8477 153.582 32.3008C153.137 32.7461 152.629 33.1172 152.059 33.4141C151.496 33.7031 150.895 33.918 150.254 34.0586C149.621 34.1992 148.992 34.2695 148.367 34.2695C147.336 34.2695 146.383 34.0977 145.508 33.7539C144.633 33.4023 143.879 32.9141 143.246 32.2891C142.613 31.6641 142.117 30.918 141.758 30.0508C141.398 29.1836 141.219 28.2344 141.219 27.2031C141.219 26.1719 141.398 25.2227 141.758 24.3555C142.117 23.4883 142.613 22.7422 143.246 22.1172C143.879 21.4922 144.633 21.0078 145.508 20.6641C146.383 20.3125 147.336 20.1367 148.367 20.1367C148.867 20.1367 149.379 20.1719 149.902 20.2422C150.426 20.3125 150.934 20.4258 151.426 20.582C151.918 20.7305 152.383 20.9258 152.82 21.168C153.258 21.4102 153.637 21.7109 153.957 22.0703C154.285 22.4219 154.543 22.832 154.73 23.3008C154.926 23.7695 155.023 24.3047 155.023 24.9062Z" fill="#4F1E47"/>
<path d="M139.391 26.2422C139.391 27.1562 139.277 28.1094 139.051 29.1016C138.832 30.0938 138.523 31.0664 138.125 32.0195C137.727 32.9727 137.25 33.8672 136.695 34.7031C136.141 35.5469 135.531 36.2734 134.867 36.8828L133.379 36.0742C133.59 35.6836 133.789 35.2461 133.977 34.7617C134.164 34.2773 134.332 33.7656 134.48 33.2266C134.637 32.6797 134.773 32.1172 134.891 31.5391C135.016 30.9609 135.117 30.3906 135.195 29.8281C135.281 29.2578 135.344 28.707 135.383 28.1758C135.43 27.6367 135.453 27.1367 135.453 26.6758C135.453 26.3711 135.441 26.0469 135.418 25.7031C135.395 25.3516 135.344 25.0039 135.266 24.6602C135.195 24.3086 135.098 23.9727 134.973 23.6523C134.848 23.332 134.68 23.0508 134.469 22.8086C134.266 22.5664 134.016 22.3711 133.719 22.2227C133.43 22.0742 133.086 22 132.688 22C132.297 22 131.949 22.0898 131.645 22.2695C131.34 22.4414 131.07 22.6719 130.836 22.9609C130.602 23.2422 130.398 23.5664 130.227 23.9336C130.062 24.3008 129.926 24.6797 129.816 25.0703C129.715 25.4531 129.641 25.832 129.594 26.207C129.547 26.582 129.523 26.918 129.523 27.2148V34H125.551V20.4648H127.074L128.891 23.6172C129.109 23.0938 129.383 22.6172 129.711 22.1875C130.039 21.7578 130.41 21.3906 130.824 21.0859C131.238 20.7812 131.695 20.5469 132.195 20.3828C132.703 20.2188 133.25 20.1367 133.836 20.1367C134.773 20.1367 135.59 20.2891 136.285 20.5938C136.98 20.8984 137.559 21.3242 138.02 21.8711C138.48 22.4102 138.824 23.0547 139.051 23.8047C139.277 24.5469 139.391 25.3594 139.391 26.2422Z" fill="#4F1E47"/>
<path d="M122.398 17.1953C122.398 17.4922 122.34 17.7734 122.223 18.0391C122.113 18.3047 121.961 18.5352 121.766 18.7305C121.57 18.9258 121.34 19.082 121.074 19.1992C120.809 19.3086 120.527 19.3633 120.23 19.3633C119.934 19.3633 119.652 19.3086 119.387 19.1992C119.129 19.082 118.902 18.9258 118.707 18.7305C118.512 18.5352 118.355 18.3047 118.238 18.0391C118.129 17.7734 118.074 17.4922 118.074 17.1953C118.074 16.8984 118.129 16.6211 118.238 16.3633C118.355 16.0977 118.512 15.8672 118.707 15.6719C118.902 15.4766 119.129 15.3242 119.387 15.2148C119.652 15.0977 119.934 15.0391 120.23 15.0391C120.527 15.0391 120.809 15.0977 121.074 15.2148C121.34 15.3242 121.57 15.4766 121.766 15.6719C121.961 15.8672 122.113 16.0977 122.223 16.3633C122.34 16.6211 122.398 16.8984 122.398 17.1953ZM122.223 34H118.25V20.4766H122.223V34Z" fill="#4F1E47"/>
<path d="M105.734 34H101.082V17.125H110.199C110.988 17.125 111.742 17.2305 112.461 17.4414C113.188 17.6523 113.828 17.9727 114.383 18.4023C114.938 18.8242 115.379 19.3594 115.707 20.0078C116.043 20.6484 116.211 21.4023 116.211 22.2695C116.211 22.8164 116.133 23.332 115.977 23.8164C115.82 24.293 115.602 24.7305 115.32 25.1289C115.047 25.5273 114.723 25.8867 114.348 26.207C113.973 26.5273 113.562 26.7969 113.117 27.0156C112.672 27.2344 112.199 27.4023 111.699 27.5195C111.207 27.6367 110.707 27.6953 110.199 27.6953H105.734V34ZM111.5 22.2695C111.5 21.1836 111.223 20.332 110.668 19.7148C110.121 19.0898 109.293 18.7773 108.184 18.7773H105.734V26.1016H108.184C108.777 26.1016 109.281 26.0078 109.695 25.8203C110.117 25.625 110.461 25.3555 110.727 25.0117C110.992 24.668 111.188 24.2656 111.312 23.8047C111.438 23.3359 111.5 22.8242 111.5 22.2695Z" fill="#4F1E47"/>
<path d="M91.5195 29.6758C91.5195 30.2695 91.4336 30.7969 91.2617 31.2578C91.0898 31.7188 90.8555 32.1211 90.5586 32.4648C90.2617 32.8008 89.9102 33.0859 89.5039 33.3203C89.0977 33.5469 88.6602 33.7305 88.1914 33.8711C87.7305 34.0117 87.2461 34.1133 86.7383 34.1758C86.2305 34.2383 85.7266 34.2695 85.2266 34.2695C84.5547 34.2695 83.9609 34.2266 83.4453 34.1406C82.9297 34.0547 82.4375 33.918 81.9688 33.7305C81.5 33.5352 81.0312 33.2852 80.5625 32.9805C80.1016 32.6758 79.5859 32.3047 79.0156 31.8672L81.3242 29.9805C81.5352 30.3789 81.8125 30.7422 82.1562 31.0703C82.5078 31.3906 82.8711 31.668 83.2461 31.9023C83.6211 32.1367 83.9844 32.3164 84.3359 32.4414C84.6875 32.5664 84.9727 32.6289 85.1914 32.6289C85.3711 32.6289 85.5742 32.625 85.8008 32.6172C86.0273 32.6016 86.2578 32.5781 86.4922 32.5469C86.7266 32.5078 86.957 32.4531 87.1836 32.3828C87.4102 32.3125 87.6094 32.2188 87.7812 32.1016C87.9609 31.9766 88.1016 31.8242 88.2031 31.6445C88.3125 31.457 88.3672 31.2344 88.3672 30.9766C88.3672 30.7109 88.2969 30.4805 88.1562 30.2852C88.0234 30.082 87.8477 29.9062 87.6289 29.7578C87.4102 29.6094 87.1602 29.4844 86.8789 29.3828C86.5977 29.2812 86.3125 29.1914 86.0234 29.1133C85.7422 29.0352 85.4688 28.9688 85.2031 28.9141C84.9375 28.8516 84.707 28.793 84.5117 28.7383C84.1523 28.6367 83.7734 28.5352 83.375 28.4336C82.9766 28.3242 82.582 28.2031 82.1914 28.0703C81.8008 27.9297 81.4258 27.7656 81.0664 27.5781C80.7148 27.3906 80.4023 27.168 80.1289 26.9102C79.8633 26.6445 79.6484 26.3359 79.4844 25.9844C79.3281 25.625 79.25 25.207 79.25 24.7305C79.25 23.8555 79.4219 23.125 79.7656 22.5391C80.1172 21.9453 80.5781 21.4727 81.1484 21.1211C81.7188 20.7617 82.3672 20.5078 83.0938 20.3594C83.8203 20.2109 84.5586 20.1367 85.3086 20.1367C85.8242 20.1367 86.3672 20.1914 86.9375 20.3008C87.5078 20.4023 88.0625 20.5586 88.6016 20.7695C89.1406 20.9727 89.6445 21.2227 90.1133 21.5195C90.582 21.8164 90.9727 22.1562 91.2852 22.5391L88.9766 24.4375C88.8047 23.9688 88.5781 23.5664 88.2969 23.2305C88.0234 22.8945 87.7227 22.6211 87.3945 22.4102C87.0742 22.1914 86.7422 22.0312 86.3984 21.9297C86.0625 21.8281 85.75 21.7773 85.4609 21.7773C85.1797 21.7773 84.8633 21.7891 84.5117 21.8125C84.1602 21.8359 83.8281 21.9023 83.5156 22.0117C83.2109 22.1211 82.9492 22.2891 82.7305 22.5156C82.5195 22.7344 82.4141 23.0391 82.4141 23.4297C82.4141 23.7109 82.4766 23.9531 82.6016 24.1562C82.7344 24.3516 82.9062 24.5234 83.1172 24.6719C83.3281 24.8125 83.5664 24.9336 83.832 25.0352C84.1055 25.1289 84.3828 25.2148 84.6641 25.293C84.9453 25.3633 85.2188 25.4258 85.4844 25.4805C85.75 25.5352 85.9883 25.5938 86.1992 25.6562C86.5586 25.7578 86.9375 25.8633 87.3359 25.9727C87.7422 26.0742 88.1406 26.1953 88.5312 26.3359C88.9219 26.4688 89.2969 26.6289 89.6562 26.8164C90.0234 26.9961 90.3438 27.2188 90.6172 27.4844C90.8906 27.75 91.1094 28.0625 91.2734 28.4219C91.4375 28.7734 91.5195 29.1914 91.5195 29.6758Z" fill="#4F1E47"/>
<path d="M78.3008 20.4648L73.3789 32.3711C72.8164 33.7305 72.1875 35.0742 71.4922 36.4023C70.8047 37.7383 70.0586 39.0195 69.2539 40.2461L67.707 39.3086C67.9023 38.957 68.1328 38.5508 68.3984 38.0898C68.6641 37.6289 68.9258 37.1523 69.1836 36.6602C69.4414 36.168 69.6797 35.6797 69.8984 35.1953C70.1172 34.7188 70.2852 34.2812 70.4023 33.8828L64.4844 20.4648H68.4453L72.4648 29.6172L75.5586 20.4648H78.3008Z" fill="#4F1E47"/>
<path d="M64.5195 21.6602L62.293 25.3516C62.1992 25.0391 62.0781 24.6875 61.9297 24.2969C61.7812 23.9062 61.5977 23.543 61.3789 23.207C61.1602 22.8633 60.8984 22.5781 60.5938 22.3516C60.2891 22.1172 59.9375 22 59.5391 22C59.1719 22 58.8516 22.0938 58.5781 22.2812C58.3125 22.4688 58.0859 22.7148 57.8984 23.0195C57.7109 23.3164 57.5547 23.6562 57.4297 24.0391C57.3125 24.4141 57.2188 24.7969 57.1484 25.1875C57.0859 25.5703 57.043 25.9414 57.0195 26.3008C56.9961 26.6523 56.9844 26.957 56.9844 27.2148V34H53.0117V20.4648H54.5352L56.1406 23.6172C56.3594 23.1094 56.6094 22.6445 56.8906 22.2227C57.1719 21.793 57.4961 21.4258 57.8633 21.1211C58.2305 20.8086 58.6445 20.5664 59.1055 20.3945C59.5742 20.2227 60.1016 20.1367 60.6875 20.1367C60.9922 20.1367 61.332 20.1641 61.707 20.2188C62.082 20.2656 62.4492 20.3516 62.8086 20.4766C63.168 20.5938 63.5 20.75 63.8047 20.9453C64.1094 21.1406 64.3477 21.3789 64.5195 21.6602Z" fill="#4F1E47"/>
<path d="M50.5508 21.3086L48.5469 22.1523C48.3906 21.6445 48.1797 21.1797 47.9141 20.7578C47.6562 20.3359 47.3438 19.9766 46.9766 19.6797C46.6172 19.375 46.207 19.1406 45.7461 18.9766C45.2852 18.8047 44.7812 18.7188 44.2344 18.7188C43.6484 18.7188 43.1094 18.8164 42.6172 19.0117C42.1328 19.1992 41.6953 19.4609 41.3047 19.7969C40.9219 20.1328 40.5859 20.5234 40.2969 20.9688C40.0078 21.4141 39.7656 21.8906 39.5703 22.3984C39.375 22.8984 39.2305 23.418 39.1367 23.957C39.043 24.4961 38.9961 25.0234 38.9961 25.5391C38.9961 26.3594 39.0898 27.1758 39.2773 27.9883C39.4727 28.8008 39.7773 29.5312 40.1914 30.1797C40.6133 30.8281 41.1562 31.3555 41.8203 31.7617C42.4844 32.1602 43.2891 32.3594 44.2344 32.3594C44.7344 32.3594 45.207 32.2773 45.6523 32.1133C46.0977 31.9414 46.5 31.7109 46.8594 31.4219C47.2266 31.125 47.5469 30.7773 47.8203 30.3789C48.0938 29.9805 48.3125 29.5508 48.4766 29.0898L50.5039 29.8984C50.207 30.6406 49.8008 31.293 49.2852 31.8555C48.7695 32.4102 48.1797 32.8711 47.5156 33.2383C46.8594 33.6055 46.1523 33.8789 45.3945 34.0586C44.6445 34.2461 43.8867 34.3398 43.1211 34.3398C42.293 34.3398 41.4961 34.2383 40.7305 34.0352C39.9727 33.832 39.2656 33.543 38.6094 33.168C37.9531 32.793 37.3555 32.3398 36.8164 31.8086C36.2852 31.2773 35.8281 30.6875 35.4453 30.0391C35.0703 29.3906 34.7773 28.6875 34.5664 27.9297C34.3633 27.1641 34.2617 26.3672 34.2617 25.5391C34.2617 24.7109 34.3633 23.918 34.5664 23.1602C34.7773 22.3945 35.0703 21.6875 35.4453 21.0391C35.8281 20.3828 36.2852 19.7891 36.8164 19.2578C37.3555 18.7266 37.9531 18.2734 38.6094 17.8984C39.2656 17.5234 39.9727 17.2344 40.7305 17.0312C41.4961 16.8281 42.293 16.7266 43.1211 16.7266C43.918 16.7266 44.6953 16.8203 45.4531 17.0078C46.2188 17.1953 46.9297 17.4805 47.5859 17.8633C48.2422 18.2383 48.8242 18.7148 49.332 19.293C49.8477 19.8633 50.2539 20.5352 50.5508 21.3086Z" fill="#4F1E47"/>
<path d="M157.672 43.2529V51.9802H156.667V43.2529H157.672Z" fill="#4F1E47"/>
<path d="M153.819 51.9802V45.4347H154.824V51.9802H153.819ZM154.33 44.3438C154.134 44.3438 153.965 44.2771 153.823 44.1436C153.684 44.01 153.614 43.8495 153.614 43.662C153.614 43.4745 153.684 43.314 153.823 43.1805C153.965 43.047 154.134 42.9802 154.33 42.9802C154.526 42.9802 154.694 43.047 154.833 43.1805C154.975 43.314 155.046 43.4745 155.046 43.662C155.046 43.8495 154.975 44.01 154.833 44.1436C154.694 44.2771 154.526 44.3438 154.33 44.3438Z" fill="#4F1E47"/>
<path d="M152.306 45.4347V46.287H148.914V45.4347H152.306ZM149.903 43.8666H150.908V50.1052C150.908 50.3893 150.95 50.6024 151.032 50.7444C151.117 50.8836 151.225 50.9774 151.356 51.0257C151.489 51.0711 151.63 51.0938 151.778 51.0938C151.888 51.0938 151.979 51.0882 152.05 51.0768C152.121 51.0626 152.178 51.0512 152.221 51.0427L152.425 51.9461C152.357 51.9717 152.262 51.9972 152.14 52.0228C152.018 52.0512 151.863 52.0654 151.675 52.0654C151.391 52.0654 151.113 52.0043 150.84 51.8822C150.57 51.76 150.346 51.5739 150.167 51.3239C149.991 51.0739 149.903 50.7586 149.903 50.3779V43.8666Z" fill="#4F1E47"/>
<path d="M143.446 48.0427V51.9802H142.44V45.4347H143.412V46.4575H143.497C143.65 46.1251 143.883 45.858 144.196 45.6563C144.508 45.4518 144.912 45.3495 145.406 45.3495C145.849 45.3495 146.237 45.4404 146.569 45.6222C146.902 45.8012 147.16 46.0739 147.345 46.4404C147.529 46.8041 147.622 47.2643 147.622 47.8211V51.9802H146.616V47.8893C146.616 47.3751 146.483 46.9745 146.216 46.6876C145.948 46.3978 145.582 46.2529 145.116 46.2529C144.795 46.2529 144.508 46.3225 144.255 46.4617C144.005 46.6009 143.808 46.8041 143.663 47.0711C143.518 47.3382 143.446 47.662 143.446 48.0427Z" fill="#4F1E47"/>
<path d="M137.605 52.1336C137.19 52.1336 136.813 52.0555 136.475 51.8992C136.137 51.7401 135.869 51.5115 135.67 51.2132C135.471 50.912 135.372 50.5484 135.372 50.1222C135.372 49.7472 135.445 49.4433 135.593 49.2103C135.741 48.9745 135.938 48.7899 136.186 48.6563C136.433 48.5228 136.705 48.4234 137.004 48.358C137.305 48.2899 137.607 48.2359 137.911 48.1961C138.309 48.145 138.632 48.1066 138.879 48.0811C139.129 48.0526 139.31 48.0058 139.424 47.9404C139.541 47.8751 139.599 47.7614 139.599 47.5995V47.5654C139.599 47.145 139.484 46.8183 139.254 46.5853C139.026 46.3524 138.681 46.2359 138.218 46.2359C137.738 46.2359 137.362 46.341 137.089 46.5512C136.816 46.7614 136.624 46.9859 136.514 47.2245L135.559 46.8836C135.73 46.4859 135.957 46.1762 136.241 45.9546C136.528 45.7302 136.84 45.5739 137.178 45.4859C137.519 45.395 137.855 45.3495 138.184 45.3495C138.394 45.3495 138.636 45.3751 138.909 45.4262C139.184 45.4745 139.45 45.5754 139.705 45.7288C139.964 45.8822 140.178 46.1137 140.349 46.4234C140.519 46.733 140.605 47.1478 140.605 47.6677V51.9802H139.599V51.0938H139.548C139.48 51.2359 139.366 51.3879 139.207 51.5498C139.048 51.7117 138.836 51.8495 138.572 51.9632C138.308 52.0768 137.985 52.1336 137.605 52.1336ZM137.758 51.2302C138.156 51.2302 138.491 51.1521 138.764 50.9958C139.039 50.8396 139.247 50.6379 139.386 50.3907C139.528 50.1436 139.599 49.8836 139.599 49.6109V48.6904C139.556 48.7416 139.462 48.7884 139.318 48.8311C139.176 48.8708 139.011 48.9063 138.823 48.9376C138.639 48.966 138.458 48.9916 138.282 49.0143C138.109 49.0342 137.968 49.0512 137.86 49.0654C137.599 49.0995 137.355 49.1549 137.127 49.2316C136.903 49.3055 136.721 49.4177 136.582 49.5683C136.445 49.716 136.377 49.9177 136.377 50.1734C136.377 50.5228 136.507 50.787 136.765 50.966C137.026 51.1421 137.357 51.2302 137.758 51.2302Z" fill="#4F1E47"/>
<path d="M134.456 45.4348V46.287H130.928V45.4348H134.456ZM131.985 51.9802V44.5313C131.985 44.1563 132.073 43.8438 132.249 43.5938C132.425 43.3438 132.654 43.1563 132.935 43.0313C133.216 42.9063 133.513 42.8438 133.825 42.8438C134.073 42.8438 134.274 42.8637 134.431 42.9035C134.587 42.9433 134.703 42.9802 134.78 43.0143L134.49 43.8836C134.439 43.8666 134.368 43.8453 134.277 43.8197C134.189 43.7941 134.073 43.7813 133.928 43.7813C133.595 43.7813 133.355 43.8651 133.208 44.0328C133.063 44.2004 132.99 44.4461 132.99 44.77V51.9802H131.985Z" fill="#4F1E47"/>
<path d="M125.528 48.0427V51.9802H124.522V45.4347H125.494V46.4575H125.579C125.732 46.1251 125.965 45.858 126.278 45.6563C126.59 45.4518 126.994 45.3495 127.488 45.3495C127.931 45.3495 128.319 45.4404 128.651 45.6222C128.984 45.8012 129.242 46.0739 129.427 46.4404C129.611 46.8041 129.704 47.2643 129.704 47.8211V51.9802H128.698V47.8893C128.698 47.3751 128.565 46.9745 128.298 46.6876C128.03 46.3978 127.664 46.2529 127.198 46.2529C126.877 46.2529 126.59 46.3225 126.337 46.4617C126.087 46.6009 125.89 46.8041 125.745 47.0711C125.6 47.3382 125.528 47.662 125.528 48.0427Z" fill="#4F1E47"/>
<path d="M121.674 51.9802V45.4347H122.68V51.9802H121.674ZM122.186 44.3438C121.99 44.3438 121.821 44.2771 121.679 44.1436C121.539 44.01 121.47 43.8495 121.47 43.662C121.47 43.4745 121.539 43.314 121.679 43.1805C121.821 43.047 121.99 42.9802 122.186 42.9802C122.382 42.9802 122.549 43.047 122.688 43.1805C122.831 43.314 122.902 43.4745 122.902 43.662C122.902 43.8495 122.831 44.01 122.688 44.1436C122.549 44.2771 122.382 44.3438 122.186 44.3438Z" fill="#4F1E47"/>
<path d="M107.87 51.9802V45.4347H108.841V46.4575H108.926C109.063 46.108 109.283 45.8367 109.587 45.6436C109.891 45.4475 110.256 45.3495 110.682 45.3495C111.114 45.3495 111.473 45.4475 111.76 45.6436C112.05 45.8367 112.276 46.108 112.438 46.4575H112.506C112.674 46.1194 112.925 45.8509 113.26 45.6521C113.595 45.4504 113.997 45.3495 114.466 45.3495C115.051 45.3495 115.53 45.5328 115.902 45.8992C116.274 46.2629 116.461 46.8296 116.461 47.5995V51.9802H115.455V47.5995C115.455 47.1166 115.323 46.7714 115.059 46.564C114.794 46.3566 114.483 46.2529 114.125 46.2529C113.665 46.2529 113.309 46.3921 113.056 46.6705C112.803 46.9461 112.676 47.2955 112.676 47.7188V51.9802H111.654V47.4972C111.654 47.1251 111.533 46.8254 111.292 46.5981C111.05 46.368 110.739 46.2529 110.358 46.2529C110.097 46.2529 109.853 46.3225 109.625 46.4617C109.401 46.6009 109.219 46.7941 109.08 47.0413C108.943 47.2856 108.875 47.5683 108.875 47.8893V51.9802H107.87Z" fill="#4F1E47"/>
<path d="M103.63 52.1166C102.999 52.1166 102.455 51.9774 101.998 51.6989C101.543 51.4177 101.192 51.0257 100.945 50.5228C100.701 50.0171 100.579 49.4291 100.579 48.7586C100.579 48.0882 100.701 47.4972 100.945 46.9859C101.192 46.4717 101.536 46.0711 101.976 45.7842C102.42 45.4944 102.937 45.3495 103.527 45.3495C103.868 45.3495 104.205 45.4063 104.537 45.52C104.87 45.6336 105.172 45.8183 105.445 46.0739C105.718 46.3268 105.935 46.662 106.097 47.0796C106.259 47.4972 106.34 48.0114 106.34 48.6222V49.0484H101.295V48.1791H105.317C105.317 47.8097 105.243 47.4802 105.096 47.1904C104.951 46.9007 104.743 46.672 104.473 46.5043C104.206 46.3367 103.891 46.2529 103.527 46.2529C103.127 46.2529 102.78 46.3524 102.488 46.5512C102.198 46.7472 101.975 47.0029 101.819 47.3183C101.662 47.6336 101.584 47.9717 101.584 48.3325V48.912C101.584 49.4063 101.67 49.8254 101.84 50.1691C102.013 50.51 102.253 50.77 102.56 50.9489C102.867 51.1251 103.223 51.2132 103.63 51.2132C103.894 51.2132 104.133 51.1762 104.346 51.1024C104.562 51.0257 104.748 50.912 104.904 50.7614C105.06 50.608 105.181 50.4177 105.266 50.1904L106.238 50.4632C106.135 50.7927 105.964 51.0825 105.722 51.3325C105.481 51.5796 105.182 51.7728 104.827 51.912C104.472 52.0484 104.073 52.1166 103.63 52.1166Z" fill="#4F1E47"/>
<path d="M96.215 54.5711C95.7292 54.5711 95.3116 54.5086 94.9621 54.3836C94.6127 54.2614 94.3215 54.0995 94.0886 53.8978C93.8584 53.699 93.6752 53.4859 93.5388 53.2586L94.34 52.6961C94.4309 52.8154 94.5459 52.9518 94.6851 53.1052C94.8244 53.2614 95.0147 53.3964 95.2562 53.51C95.5005 53.6265 95.8201 53.6847 96.215 53.6847C96.7434 53.6847 97.1795 53.5569 97.5232 53.3012C97.867 53.0455 98.0388 52.645 98.0388 52.0995V50.77H97.9536C97.8797 50.8893 97.7746 51.037 97.6383 51.2132C97.5047 51.3865 97.3116 51.5413 97.0587 51.6776C96.8087 51.8112 96.4707 51.8779 96.0445 51.8779C95.5161 51.8779 95.0417 51.7529 94.6212 51.5029C94.2036 51.2529 93.8726 50.8893 93.6283 50.412C93.3869 49.9347 93.2661 49.3552 93.2661 48.6734C93.2661 48.0029 93.384 47.4191 93.6198 46.922C93.8556 46.422 94.1837 46.0356 94.6042 45.7629C95.0246 45.4873 95.5104 45.3495 96.0616 45.3495C96.4877 45.3495 96.8258 45.4205 97.0758 45.5626C97.3286 45.7018 97.5218 45.8609 97.6553 46.0399C97.7917 46.216 97.8968 46.3609 97.9707 46.4745H98.0729V45.4347H99.0445V52.1677C99.0445 52.7302 98.9167 53.1876 98.661 53.5399C98.4082 53.895 98.0672 54.1549 97.6383 54.3197C97.2121 54.4873 96.7377 54.5711 96.215 54.5711ZM96.1809 50.9745C96.5843 50.9745 96.9252 50.8822 97.2036 50.6975C97.482 50.5129 97.6937 50.2472 97.8386 49.9007C97.9834 49.5541 98.0559 49.1393 98.0559 48.6563C98.0559 48.1847 97.9849 47.7686 97.8428 47.4078C97.7008 47.047 97.4905 46.7643 97.2121 46.5597C96.9337 46.3552 96.59 46.2529 96.1809 46.2529C95.7547 46.2529 95.3996 46.3609 95.1155 46.5768C94.8343 46.7927 94.6226 47.0825 94.4806 47.4461C94.3414 47.8097 94.2718 48.2132 94.2718 48.6563C94.2718 49.1109 94.3428 49.5129 94.4849 49.8623C94.6297 50.2089 94.8428 50.4816 95.1241 50.6805C95.4082 50.8765 95.7604 50.9745 96.1809 50.9745Z" fill="#4F1E47"/>
<path d="M88.7374 52.1336C88.3226 52.1336 87.9462 52.0555 87.6081 51.8992C87.27 51.7401 87.0016 51.5115 86.8027 51.2132C86.6038 50.912 86.5044 50.5484 86.5044 50.1222C86.5044 49.7472 86.5783 49.4433 86.726 49.2103C86.8737 48.9745 87.0712 48.7899 87.3183 48.6563C87.5655 48.5228 87.8382 48.4234 88.1365 48.358C88.4376 48.2899 88.7402 48.2359 89.0442 48.1961C89.4419 48.145 89.7643 48.1066 90.0115 48.0811C90.2615 48.0526 90.4433 48.0058 90.557 47.9404C90.6734 47.8751 90.7317 47.7614 90.7317 47.5995V47.5654C90.7317 47.145 90.6166 46.8183 90.3865 46.5853C90.1592 46.3524 89.8141 46.2359 89.351 46.2359C88.8709 46.2359 88.4945 46.341 88.2217 46.5512C87.949 46.7614 87.7572 46.9859 87.6464 47.2245L86.6919 46.8836C86.8623 46.4859 87.0896 46.1762 87.3737 45.9546C87.6606 45.7302 87.9731 45.5739 88.3112 45.4859C88.6521 45.395 88.9873 45.3495 89.3169 45.3495C89.5271 45.3495 89.7686 45.3751 90.0413 45.4262C90.3169 45.4745 90.5825 45.5754 90.8382 45.7288C91.0967 45.8822 91.3112 46.1137 91.4817 46.4234C91.6521 46.733 91.7374 47.1478 91.7374 47.6677V51.9802H90.7317V51.0938H90.6805C90.6123 51.2359 90.4987 51.3879 90.3396 51.5498C90.1805 51.7117 89.9689 51.8495 89.7047 51.9632C89.4405 52.0768 89.118 52.1336 88.7374 52.1336ZM88.8908 51.2302C89.2885 51.2302 89.6237 51.1521 89.8964 50.9958C90.172 50.8396 90.3794 50.6379 90.5186 50.3907C90.6606 50.1436 90.7317 49.8836 90.7317 49.6109V48.6904C90.6891 48.7416 90.5953 48.7884 90.4504 48.8311C90.3084 48.8708 90.1436 48.9063 89.9561 48.9376C89.7714 48.966 89.591 48.9916 89.4149 49.0143C89.2416 49.0342 89.101 49.0512 88.993 49.0654C88.7317 49.0995 88.4874 49.1549 88.2601 49.2316C88.0356 49.3055 87.8538 49.4177 87.7146 49.5683C87.5783 49.716 87.5101 49.9177 87.5101 50.1734C87.5101 50.5228 87.6393 50.787 87.8979 50.966C88.1592 51.1421 88.4902 51.2302 88.8908 51.2302Z" fill="#4F1E47"/>
<path d="M80.1313 51.9802V51.2132L83.8473 46.4404V46.3722H80.2507V45.4347H85.1427V46.2359L81.5291 50.9745V51.0427H85.262V51.9802H80.1313Z" fill="#4F1E47"/>
<path d="M77.4711 51.9802V45.4347H78.4768V51.9802H77.4711ZM77.9825 44.3438C77.7865 44.3438 77.6175 44.2771 77.4754 44.1436C77.3362 44.01 77.2666 43.8495 77.2666 43.662C77.2666 43.4745 77.3362 43.314 77.4754 43.1805C77.6175 43.047 77.7865 42.9802 77.9825 42.9802C78.1785 42.9802 78.3461 43.047 78.4854 43.1805C78.6274 43.314 78.6984 43.4745 78.6984 43.662C78.6984 43.8495 78.6274 44.01 78.4854 44.1436C78.3461 44.2771 78.1785 44.3438 77.9825 44.3438Z" fill="#4F1E47"/>
<path d="M72.4898 52.1166C71.9444 52.1166 71.4628 51.9788 71.0452 51.7032C70.6276 51.4248 70.3009 51.0328 70.0651 50.5271C69.8293 50.0186 69.7114 49.4177 69.7114 48.7245C69.7114 48.037 69.8293 47.4404 70.0651 46.9347C70.3009 46.4291 70.629 46.0384 71.0495 45.7629C71.47 45.4873 71.9557 45.3495 72.5069 45.3495C72.933 45.3495 73.2697 45.4205 73.5168 45.5626C73.7668 45.7018 73.9572 45.8609 74.0878 46.0399C74.2214 46.216 74.3251 46.3609 74.3989 46.4745H74.4842V43.2529H75.4898V51.9802H74.5182V50.9745H74.3989C74.3251 51.0938 74.2199 51.2444 74.0836 51.4262C73.9472 51.6052 73.7526 51.7657 73.4998 51.9078C73.2469 52.047 72.9103 52.1166 72.4898 52.1166ZM72.6262 51.2132C73.0296 51.2132 73.3705 51.108 73.6489 50.8978C73.9273 50.6847 74.139 50.3907 74.2839 50.0157C74.4288 49.6379 74.5012 49.2018 74.5012 48.7075C74.5012 48.2188 74.4302 47.7913 74.2881 47.4248C74.1461 47.0555 73.9359 46.7686 73.6574 46.564C73.379 46.3566 73.0353 46.2529 72.6262 46.2529C72.2001 46.2529 71.845 46.3623 71.5609 46.5811C71.2796 46.797 71.068 47.091 70.9259 47.4632C70.7867 47.8325 70.7171 48.2472 70.7171 48.7075C70.7171 49.1734 70.7881 49.5967 70.9302 49.9774C71.0751 50.3552 71.2881 50.6563 71.5694 50.8808C71.8535 51.1024 72.2057 51.2132 72.6262 51.2132Z" fill="#4F1E47"/>
<path d="M64.0042 48.0427V51.9802H62.9985V45.4347H63.9701V46.4575H64.0554C64.2088 46.1251 64.4417 45.858 64.7542 45.6563C65.0667 45.4518 65.4701 45.3495 65.9644 45.3495C66.4076 45.3495 66.7954 45.4404 67.1278 45.6222C67.4602 45.8012 67.7187 46.0739 67.9034 46.4404C68.088 46.8041 68.1804 47.2643 68.1804 47.8211V51.9802H67.1747V47.8893C67.1747 47.3751 67.0411 46.9745 66.7741 46.6876C66.5071 46.3978 66.1406 46.2529 65.6747 46.2529C65.3536 46.2529 65.0667 46.3225 64.8139 46.4617C64.5639 46.6009 64.3664 46.8041 64.2215 47.0711C64.0767 47.3382 64.0042 47.662 64.0042 48.0427Z" fill="#4F1E47"/>
<path d="M58.7587 52.1166C58.128 52.1166 57.5839 51.9774 57.1266 51.6989C56.672 51.4177 56.3212 51.0257 56.074 50.5228C55.8297 50.0171 55.7075 49.4291 55.7075 48.7586C55.7075 48.0882 55.8297 47.4972 56.074 46.9859C56.3212 46.4717 56.6649 46.0711 57.1052 45.7842C57.5484 45.4944 58.0655 45.3495 58.6564 45.3495C58.9973 45.3495 59.3339 45.4063 59.6663 45.52C59.9987 45.6336 60.3013 45.8183 60.574 46.0739C60.8467 46.3268 61.0641 46.662 61.226 47.0796C61.3879 47.4972 61.4689 48.0114 61.4689 48.6222V49.0484H56.4234V48.1791H60.4462C60.4462 47.8097 60.3723 47.4802 60.2246 47.1904C60.0797 46.9007 59.8723 46.672 59.6024 46.5043C59.3354 46.3367 59.02 46.2529 58.6564 46.2529C58.2558 46.2529 57.9092 46.3524 57.6166 46.5512C57.3268 46.7472 57.1038 47.0029 56.9476 47.3183C56.7913 47.6336 56.7132 47.9717 56.7132 48.3325V48.912C56.7132 49.4063 56.7984 49.8254 56.9689 50.1691C57.1422 50.51 57.3822 50.77 57.6891 50.9489C57.9959 51.1251 58.3524 51.2132 58.7587 51.2132C59.0229 51.2132 59.2615 51.1762 59.4746 51.1024C59.6905 51.0257 59.8766 50.912 60.0328 50.7614C60.1891 50.608 60.3098 50.4177 60.395 50.1904L61.3666 50.4632C61.2643 50.7927 61.0925 51.0825 60.851 51.3325C60.6095 51.5796 60.3112 51.7728 59.9561 51.912C59.601 52.0484 59.2018 52.1166 58.7587 52.1166Z" fill="#4F1E47"/>
<path d="M51.7485 51.9802V45.4347H52.7201V46.4234H52.7883C52.9076 46.0995 53.1235 45.8367 53.436 45.635C53.7485 45.4333 54.1008 45.3325 54.4929 45.3325C54.5667 45.3325 54.659 45.3339 54.7698 45.3367C54.8806 45.3396 54.9644 45.3438 55.0213 45.3495V46.3722C54.9872 46.3637 54.909 46.3509 54.7869 46.3339C54.6676 46.314 54.5411 46.3041 54.4076 46.3041C54.0894 46.3041 53.8054 46.3708 53.5554 46.5043C53.3082 46.635 53.1122 46.8168 52.9673 47.0498C52.8252 47.2799 52.7542 47.5427 52.7542 47.8382V51.9802H51.7485Z" fill="#4F1E47"/>
<path d="M44.436 54.4347V45.4347H45.4076V46.4745H45.5269C45.6008 46.3609 45.7031 46.216 45.8338 46.0399C45.9673 45.8609 46.1576 45.7018 46.4048 45.5626C46.6548 45.4205 46.9929 45.3495 47.419 45.3495C47.9701 45.3495 48.4559 45.4873 48.8764 45.7629C49.2968 46.0384 49.625 46.4291 49.8608 46.9347C50.0965 47.4404 50.2144 48.037 50.2144 48.7245C50.2144 49.4177 50.0965 50.0186 49.8608 50.5271C49.625 51.0328 49.2983 51.4248 48.8806 51.7032C48.463 51.9788 47.9815 52.1166 47.436 52.1166C47.0156 52.1166 46.6789 52.047 46.4261 51.9078C46.1733 51.7657 45.9786 51.6052 45.8423 51.4262C45.7059 51.2444 45.6008 51.0938 45.5269 50.9745H45.4417V54.4347H44.436ZM45.4247 48.7075C45.4247 49.2018 45.4971 49.6379 45.642 50.0157C45.7869 50.3907 45.9985 50.6847 46.2769 50.8978C46.5554 51.108 46.8963 51.2132 47.2997 51.2132C47.7201 51.2132 48.071 51.1024 48.3522 50.8808C48.6363 50.6563 48.8494 50.3552 48.9914 49.9774C49.1363 49.5967 49.2088 49.1734 49.2088 48.7075C49.2088 48.2472 49.1377 47.8325 48.9957 47.4632C48.8565 47.091 48.6448 46.797 48.3608 46.5811C48.0795 46.3623 47.7258 46.2529 47.2997 46.2529C46.8906 46.2529 46.5468 46.3566 46.2684 46.564C45.99 46.7686 45.7798 47.0555 45.6377 47.4248C45.4957 47.7913 45.4247 48.2188 45.4247 48.7075Z" fill="#4F1E47"/>
<path d="M36.8208 51.9802H35.7129L38.9174 43.2529H40.0083L43.2129 51.9802H42.1049L39.497 44.6336H39.4288L36.8208 51.9802ZM37.2299 48.5711H41.6958V49.5086H37.2299V48.5711Z" fill="#4F1E47"/>
<mask id="mask0_216_22" style="mask-type:alpha" maskUnits="userSpaceOnUse" x="0" y="0" width="29" height="61">
<path fill-rule="evenodd" clip-rule="evenodd" d="M20.8245 5.7637C22.7501 5.60266 26.5896 5.43658 27.8097 4.65009C28.9795 3.89614 26.6816 3.63848 26.3062 3.62063C21.9174 3.41153 19.5729 3.41933 15.7038 5.47095C8.87577 9.09163 5.51337 12.705 2.67299 19.917C0.260849 26.0412 -0.371597 34.6915 3.84472 40.2113C8.46552 46.2607 19.1741 42.75 17.8913 33.3706C17.2818 28.9141 13.7018 27.372 10.5627 30.8119C7.92934 33.6978 13.6175 31.2556 15.2863 31.8424C18.453 32.9558 17.01 38.6668 13.9461 40.5497C10.9053 42.4184 6.52203 41.7649 4.46192 38.734C0.634073 33.1023 2.20807 23.0395 5.13074 17.2407C7.87705 11.7917 14.6514 6.3013 20.8245 5.7637Z" fill="#4F1E47"/>
<path fill-rule="evenodd" clip-rule="evenodd" d="M13.0388 22.7671C9.85039 23.436 7.14866 25.5916 5.98723 28.6113C4.88975 31.465 4.1192 35.4761 6.47916 37.9227C9.33139 40.8798 12.767 39.3207 14.0917 35.7773C16.0149 30.6327 12.1271 36.057 11.2059 36.8079C5.96318 41.0816 2.76809 27.7723 12.5189 24.9806C20.051 22.8242 24.4274 29.6831 25.5135 36.1706C26.5259 42.2173 24.9995 49.8717 19.7639 53.6453C19.748 53.6567 12.4438 58.1669 14.8157 58.1124C17.4276 58.0523 20.6229 54.8738 22.1496 52.9423C26.6548 47.2423 28.0495 41.5525 26.4789 34.2836C25.1481 28.1253 20.1149 21.2826 13.0388 22.7671Z" fill="#4F1E47"/>
<path fill-rule="evenodd" clip-rule="evenodd" d="M28.647 3.53625C28.6283 3.49425 28.7019 3.50479 28.5622 3.4453C28.518 3.42656 28.4902 3.43279 28.4487 3.43271C28.486 3.51608 28.5579 3.52928 28.647 3.53625Z" fill="#4F1E47"/>
<path fill-rule="evenodd" clip-rule="evenodd" d="M26.0053 38.5565C26.0253 38.4573 26.016 38.436 25.9564 38.3543C25.9262 38.447 25.9483 38.4728 26.0053 38.5565Z" fill="#4F1E47"/>
<path fill-rule="evenodd" clip-rule="evenodd" d="M11.071 29.9152L11.2654 29.701C11.1756 29.7517 11.1005 29.8117 11.071 29.9152ZM11.0337 29.9124C11.0307 29.9164 11.0432 29.9184 11.0438 29.9234C11.0439 29.9253 11.0478 29.9277 11.0478 29.9277C11.047 29.9268 11.0715 29.8641 11.0337 29.9124Z" fill="#4F1E47"/>
<path fill-rule="evenodd" clip-rule="evenodd" d="M4.56626 35.6887C4.66022 35.6615 4.63183 35.695 4.64304 35.5979C4.5871 35.6163 4.56023 35.602 4.56626 35.6887Z" fill="#4F1E47"/>
<path fill-rule="evenodd" clip-rule="evenodd" d="M9.5066 25.9059C9.61587 25.8908 9.57093 25.9125 9.57306 25.8309C9.52911 25.8509 9.50351 25.8521 9.5066 25.9059Z" fill="#4F1E47"/>
<path fill-rule="evenodd" clip-rule="evenodd" d="M0.00373222 0.046457C0.00619272 0.0567091 0.0986545 0.11005 0.0546067 0.0396843C0.0224754 -0.0116486 -0.0114409 -0.0170578 0.00373222 0.046457Z" fill="#4F1E47"/>
<path fill-rule="evenodd" clip-rule="evenodd" d="M11.9695 60.2173C12.0026 60.2453 12.0657 60.1684 12.0044 60.1973C12.0036 60.1976 11.9231 60.178 11.9695 60.2173Z" fill="#4F1E47"/>
<path fill-rule="evenodd" clip-rule="evenodd" d="M28.2673 13.5305C28.3003 13.5585 28.3636 13.4816 28.3023 13.5105C28.3016 13.5108 28.2209 13.4912 28.2673 13.5305Z" fill="#4F1E47"/>
<path fill-rule="evenodd" clip-rule="evenodd" d="M24.2741 26.5603C24.3072 26.5882 24.3704 26.5114 24.3091 26.5404C24.3084 26.5407 24.2278 26.5212 24.2741 26.5603Z" fill="#4F1E47"/>
<path fill-rule="evenodd" clip-rule="evenodd" d="M27.3186 23.8624C27.3516 23.8904 27.4148 23.8135 27.3535 23.8425C27.3528 23.8427 27.2722 23.8231 27.3186 23.8624Z" fill="#4F1E47"/>
<path fill-rule="evenodd" clip-rule="evenodd" d="M20.6569 2.95954C20.6603 2.96249 20.6651 2.94483 20.6656 2.94924C20.665 2.94997 20.6534 2.95664 20.6569 2.95954Z" fill="#4F1E47"/>
<path fill-rule="evenodd" clip-rule="evenodd" d="M17.2106 59.8757C17.214 59.8786 17.2189 59.861 17.2194 59.8654C17.2188 59.8662 17.2072 59.8728 17.2106 59.8757Z" fill="#4F1E47"/>
<path fill-rule="evenodd" clip-rule="evenodd" d="M24.4684 14.7993C24.4719 14.8023 24.4767 14.7846 24.4771 14.7891C24.4766 14.7898 24.465 14.7964 24.4684 14.7993Z" fill="#4F1E47"/>
</mask>
<g mask="url(#mask0_216_22)">
<path d="M-1.13232 -0.0138283H28.1962V65.6262H-1.13232V-0.0138283Z" fill="#4F1E47"/>
</g>
</svg>